<svg width="346" height="152" viewBox="0 0 346 152" fill="none" xmlns="http://www.w3.org/2000/svg">
<g opacity="0.1">
<g opacity="0.1">
<path d="M151 147.449V150.988H147.46" stroke="#EB5757" stroke-miterlimit="10"/>
<path d="M151 147.449V150.988H147.46" stroke="#1D2671" stroke-opacity="0.5" stroke-miterlimit="10"/>
</g>
<g opacity="0.1">
<path d="M140.652 150.988H7.94946" stroke="#EB5757" stroke-miterlimit="10" stroke-dasharray="5.77 5.77"/>
<path d="M140.652 150.988H7.94946" stroke="#1D2671" stroke-opacity="0.5" stroke-miterlimit="10" stroke-dasharray="5.77 5.77"/>
</g>
<g opacity="0.1">
<path d="M4.53968 150.988H1V147.449" stroke="#EB5757" stroke-miterlimit="10"/>
<path d="M4.53968 150.988H1V147.449" stroke="#1D2671" stroke-opacity="0.5" stroke-miterlimit="10"/>
</g>
<g opacity="0.1">
<path d="M1 140.641V7.93777" stroke="#EB5757" stroke-miterlimit="10" stroke-dasharray="5.77 5.77"/>
<path d="M1 140.641V7.93777" stroke="#1D2671" stroke-opacity="0.5" stroke-miterlimit="10" stroke-dasharray="5.77 5.77"/>
</g>
<g opacity="0.1">
<path d="M1 4.53968V1H4.53968" stroke="#EB5757" stroke-miterlimit="10"/>
<path d="M1 4.53968V1H4.53968" stroke="#1D2671" stroke-opacity="0.5" stroke-miterlimit="10"/>
</g>
<g opacity="0.1">
<path d="M11.3477 1H144.05" stroke="#EB5757" stroke-miterlimit="10" stroke-dasharray="5.77 5.77"/>
<path d="M11.3477 1H144.05" stroke="#1D2671" stroke-opacity="0.5" stroke-miterlimit="10" stroke-dasharray="5.77 5.77"/>
</g>
<g opacity="0.1">
<path d="M147.46 1H151V4.53968" stroke="#EB5757" stroke-miterlimit="10"/>
<path d="M147.46 1H151V4.53968" stroke="#1D2671" stroke-opacity="0.5" stroke-miterlimit="10"/>
</g>
<g opacity="0.1">
<path d="M151 11.3359V144.05" stroke="#EB5757" stroke-miterlimit="10" stroke-dasharray="5.77 5.77"/>
<path d="M151 11.3359V144.05" stroke="#1D2671" stroke-opacity="0.5" stroke-miterlimit="10" stroke-dasharray="5.77 5.77"/>
</g>
</g>
<path d="M77.1156 58.3905C79.4309 58.3927 81.7198 58.8954 83.8329 59.8658C85.9459 60.8362 87.8359 62.2526 89.3794 64.0224L94.2117 59.5545C91.1186 56.0267 87.0606 53.537 82.5671 52.4105C78.0737 51.2838 73.3535 51.5725 69.0223 53.2389C64.6913 54.9053 60.9505 57.8719 58.2881 61.7516C55.6257 65.6314 54.1655 70.2441 54.0977 74.988C54.03 79.7318 55.3581 84.3864 57.9086 88.3444C60.4591 92.3025 64.1136 95.3801 68.3953 97.1758C72.677 98.9714 77.387 99.4017 81.9107 98.4104C86.4343 97.4192 90.5617 95.0525 93.7541 91.6191L89.0316 87.0196C87.1504 89.0374 84.811 90.5455 82.2226 91.4093C79.6343 92.2731 76.8775 92.4657 74.1989 91.9696C71.5202 91.4737 69.0032 90.3048 66.8727 88.5673C64.7422 86.8298 63.0646 84.578 61.9901 82.013C60.9154 79.448 60.4772 76.6499 60.7146 73.8689C60.9521 71.0877 61.8577 68.4103 63.3505 66.076C64.8434 63.7416 66.8769 61.823 69.2695 60.4917C71.662 59.1603 74.3388 58.4578 77.0609 58.4468L77.1156 58.3905Z" fill="#FC4A1A"/>
<path d="M55.2751 52.8083L50.5077 48.1958C46.7833 51.7534 43.828 55.9821 41.8114 60.6393C39.7948 65.2963 38.7566 70.29 38.7566 75.3334C38.7566 80.3767 39.7948 85.3704 41.8114 90.0274C43.828 94.6846 46.7833 98.9133 50.5077 102.471L55.2751 97.8584C52.17 94.913 49.7047 91.4054 48.0221 87.5388C46.3396 83.6723 45.4732 79.5236 45.4732 75.3334C45.4732 71.1431 46.3396 66.9945 48.0221 63.1279C49.7047 59.2613 52.17 55.7537 55.2751 52.8083Z" fill="#650F0F"/>
<path d="M100.111 44.037C93.6107 39.0636 85.756 36.3867 77.6931 36.3968V43.0938C84.346 43.0874 90.8284 45.2875 96.203 49.3757L100.111 44.037Z" fill="#650F0F"/>
<path d="M77.6931 107.663V114.27C85.2353 114.278 92.6161 112.079 98.9312 107.942L95.2215 102.471C90.003 105.868 83.9138 107.672 77.6931 107.663Z" fill="#650F0F"/>
<g filter="url(#filter0_d_129_39)">
<path d="M77.6931 99.5034C72.584 99.5 67.5991 97.972 63.4136 95.1262C59.2279 92.2804 56.0436 88.2541 54.2915 83.5926L48.1958 86.3421C50.4913 92.1312 54.5383 97.109 59.8038 100.62C65.0693 104.131 71.3063 106.01 77.6931 106.011V99.5034Z" fill="#020100"/>
</g>
<path d="M53.5254 74.1535C53.9211 67.9466 56.6389 62.1243 61.1271 57.8679C65.6153 53.6115 71.5379 51.2397 77.6931 51.2337V44.6561C69.8106 44.6559 62.2298 47.7179 56.5195 53.2086C50.8091 58.6993 47.4064 66.1983 47.0159 74.1535H53.5254Z" fill="#020100"/>
<path opacity="0.5" d="M109.267 92.992C109.267 93.7707 108.947 94.3947 108.307 94.864C107.678 95.3333 106.809 95.568 105.699 95.568C105.145 95.568 104.563 95.4933 103.955 95.344C103.358 95.1947 102.793 94.9547 102.259 94.624L102.707 93.6C103.241 93.8987 103.753 94.1067 104.243 94.224C104.745 94.352 105.23 94.416 105.699 94.416C106.425 94.416 106.985 94.2987 107.379 94.064C107.774 93.8293 107.971 93.5147 107.971 93.12C107.971 92.832 107.875 92.608 107.683 92.448C107.491 92.2987 107.182 92.224 106.755 92.224H104.915C104.222 92.224 103.721 92.0587 103.411 91.728C103.102 91.3973 102.947 91.0347 102.947 90.64C102.947 90.3627 103.011 90.0907 103.139 89.824C103.267 89.5467 103.449 89.2747 103.683 89.008C103.31 88.784 103.011 88.48 102.787 88.096C102.563 87.7013 102.451 87.2267 102.451 86.672C102.451 86.064 102.579 85.5573 102.835 85.152C103.102 84.7467 103.454 84.4427 103.891 84.24C104.329 84.0267 104.819 83.92 105.363 83.92H105.635C106.009 83.92 106.35 83.9733 106.659 84.08H109.507V85.248L107.779 85.008C108.003 85.2 108.185 85.44 108.323 85.728C108.462 86.0053 108.531 86.3467 108.531 86.752C108.531 87.328 108.398 87.8133 108.131 88.208C107.875 88.6027 107.529 88.9067 107.091 89.12C106.654 89.3227 106.169 89.424 105.635 89.424H105.363C105.225 89.424 105.091 89.4187 104.963 89.408C104.835 89.3867 104.707 89.3653 104.579 89.344C104.27 89.6853 104.115 90.0213 104.115 90.352C104.115 90.7787 104.414 90.992 105.011 90.992H106.803C107.571 90.992 108.174 91.1627 108.611 91.504C109.049 91.8453 109.267 92.3413 109.267 92.992ZM105.635 88.288C106.051 88.288 106.419 88.1547 106.739 87.888C107.059 87.6213 107.219 87.216 107.219 86.672C107.219 86.1387 107.059 85.7387 106.739 85.472C106.419 85.1947 106.051 85.056 105.635 85.056H105.363C104.937 85.056 104.563 85.1947 104.243 85.472C103.923 85.7387 103.763 86.1387 103.763 86.672C103.763 87.216 103.923 87.6213 104.243 87.888C104.563 88.1547 104.937 88.288 105.363 88.288H105.635ZM116.988 91.536C116.508 91.7707 116.028 91.9307 115.548 92.016C115.068 92.112 114.625 92.16 114.22 92.16C113.079 92.16 112.225 91.8347 111.66 91.184C111.105 90.5333 110.828 89.6427 110.828 88.512V87.552C110.828 86.4533 111.105 85.5733 111.66 84.912C112.225 84.2507 113.02 83.92 114.044 83.92C114.588 83.92 115.084 84.032 115.532 84.256C115.991 84.4693 116.353 84.8 116.62 85.248C116.897 85.6853 117.036 86.2507 117.036 86.944C117.036 87.392 116.972 87.904 116.844 88.48H112.124V88.512C112.124 89.3227 112.289 89.936 112.62 90.352C112.961 90.768 113.505 90.976 114.252 90.976C114.593 90.976 114.967 90.9333 115.372 90.848C115.788 90.7627 116.193 90.6293 116.588 90.448L116.988 91.536ZM114.044 85.072C113.425 85.072 112.956 85.2747 112.636 85.68C112.327 86.0747 112.156 86.6347 112.124 87.36H115.708C115.74 87.168 115.756 86.9867 115.756 86.816C115.756 86.2187 115.585 85.7813 115.244 85.504C114.913 85.216 114.513 85.072 114.044 85.072ZM123.658 91.712C123.061 92.0107 122.426 92.16 121.754 92.16C121.178 92.16 120.725 92.0427 120.394 91.808C120.074 91.5733 119.845 91.2587 119.706 90.864C119.578 90.4693 119.514 90.032 119.514 89.552V85.232H118.138V84.08H119.514V81.872H120.826V84.08H123.418V85.232H120.826V89.504C120.826 90.0587 120.917 90.4427 121.098 90.656C121.29 90.8587 121.584 90.96 121.978 90.96C122.17 90.96 122.368 90.9387 122.57 90.896C122.784 90.8427 123.013 90.7573 123.258 90.64L123.658 91.712ZM134.613 91.536C134.133 91.7707 133.653 91.9307 133.173 92.016C132.693 92.112 132.25 92.16 131.845 92.16C130.704 92.16 129.85 91.8347 129.285 91.184C128.73 90.5333 128.453 89.6427 128.453 88.512V87.552C128.453 86.4533 128.73 85.5733 129.285 84.912C129.85 84.2507 130.645 83.92 131.669 83.92C132.213 83.92 132.709 84.032 133.157 84.256C133.616 84.4693 133.978 84.8 134.245 85.248C134.522 85.6853 134.661 86.2507 134.661 86.944C134.661 87.392 134.597 87.904 134.469 88.48H129.749V88.512C129.749 89.3227 129.914 89.936 130.245 90.352C130.586 90.768 131.13 90.976 131.877 90.976C132.218 90.976 132.592 90.9333 132.997 90.848C133.413 90.7627 133.818 90.6293 134.213 90.448L134.613 91.536ZM131.669 85.072C131.05 85.072 130.581 85.2747 130.261 85.68C129.952 86.0747 129.781 86.6347 129.749 87.36H133.333C133.365 87.168 133.381 86.9867 133.381 86.816C133.381 86.2187 133.21 85.7813 132.869 85.504C132.538 85.216 132.138 85.072 131.669 85.072ZM140.659 85.152C140.361 85.152 140.025 85.232 139.651 85.392C139.278 85.5413 138.809 85.84 138.243 86.288V92H136.931V84.08H138.179V85.184C138.745 84.7147 139.246 84.3893 139.683 84.208C140.121 84.016 140.553 83.92 140.979 83.92C141.481 83.92 141.897 84.0373 142.227 84.272C142.558 84.496 142.803 84.8213 142.963 85.248C143.55 84.7467 144.073 84.4 144.531 84.208C145.001 84.016 145.459 83.92 145.907 83.92C146.611 83.92 147.15 84.1547 147.523 84.624C147.897 85.0827 148.083 85.7387 148.083 86.592V92H146.771V86.784C146.771 85.696 146.377 85.152 145.587 85.152C145.289 85.152 144.947 85.232 144.563 85.392C144.19 85.5413 143.721 85.84 143.155 86.288C143.166 86.3307 143.171 86.3787 143.171 86.432C143.171 86.4853 143.171 86.5387 143.171 86.592V92H141.859V86.784C141.859 85.696 141.459 85.152 140.659 85.152ZM158.674 91.712C158.077 92.0107 157.442 92.16 156.77 92.16C156.194 92.16 155.741 92.0427 155.41 91.808C155.09 91.5733 154.861 91.2587 154.722 90.864C154.594 90.4693 154.53 90.032 154.53 89.552V85.232H153.154V84.08H154.53V81.872H155.842V84.08H158.434V85.232H155.842V89.504C155.842 90.0587 155.933 90.4427 156.114 90.656C156.306 90.8587 156.599 90.96 156.994 90.96C157.186 90.96 157.383 90.9387 157.586 90.896C157.799 90.8427 158.029 90.7573 158.274 90.64L158.674 91.712ZM161.792 82.144H160.32V80.672H161.792V82.144ZM161.712 92H160.4V84.08H161.712V92ZM168.733 92L166.765 88.912L164.877 92H163.485L166.109 87.904L163.677 84.08H165.133L166.877 86.848L168.589 84.08H169.965L167.549 87.872L170.173 92H168.733ZM179.591 85.232H176.999V92H175.687V85.232H174.311V84.08H175.687V82.768C175.687 82.2773 175.767 81.824 175.927 81.408C176.098 80.9813 176.37 80.64 176.743 80.384C177.117 80.128 177.613 80 178.231 80C178.541 80 178.866 80.0373 179.207 80.112C179.559 80.176 179.885 80.2773 180.183 80.416L179.815 81.52C179.271 81.3067 178.797 81.2 178.391 81.2C177.943 81.2 177.597 81.3227 177.351 81.568C177.117 81.8133 176.999 82.208 176.999 82.752V84.08H179.591V85.232ZM185.185 85.232C184.705 85.232 184.236 85.3173 183.777 85.488C183.329 85.6587 182.849 85.984 182.337 86.464V92H181.025V84.08H182.273V85.36C182.817 84.8267 183.313 84.4533 183.761 84.24C184.22 84.0267 184.695 83.92 185.185 83.92V85.232ZM193.172 87.552V88.512C193.172 89.6427 192.879 90.5333 192.292 91.184C191.716 91.8347 190.89 92.16 189.812 92.16C188.746 92.16 187.919 91.8347 187.332 91.184C186.746 90.5333 186.452 89.6427 186.452 88.512V87.552C186.452 86.4427 186.74 85.5627 187.316 84.912C187.903 84.2507 188.735 83.92 189.812 83.92C190.89 83.92 191.716 84.2507 192.292 84.912C192.879 85.5627 193.172 86.4427 193.172 87.552ZM191.812 87.552C191.812 86.7947 191.642 86.2027 191.3 85.776C190.959 85.3387 190.463 85.12 189.812 85.12C189.172 85.12 188.676 85.3387 188.324 85.776C187.983 86.2027 187.812 86.7947 187.812 87.552V88.512C187.812 89.3013 187.983 89.9093 188.324 90.336C188.676 90.7627 189.172 90.976 189.812 90.976C190.463 90.976 190.959 90.7627 191.3 90.336C191.642 89.9093 191.812 89.3013 191.812 88.512V87.552ZM199.284 85.152C198.986 85.152 198.65 85.232 198.276 85.392C197.903 85.5413 197.434 85.84 196.868 86.288V92H195.556V84.08H196.804V85.184C197.37 84.7147 197.871 84.3893 198.308 84.208C198.746 84.016 199.178 83.92 199.604 83.92C200.106 83.92 200.522 84.0373 200.852 84.272C201.183 84.496 201.428 84.8213 201.588 85.248C202.175 84.7467 202.698 84.4 203.156 84.208C203.626 84.016 204.084 83.92 204.532 83.92C205.236 83.92 205.775 84.1547 206.148 84.624C206.522 85.0827 206.708 85.7387 206.708 86.592V92H205.396V86.784C205.396 85.696 205.002 85.152 204.212 85.152C203.914 85.152 203.572 85.232 203.188 85.392C202.815 85.5413 202.346 85.84 201.78 86.288C201.791 86.3307 201.796 86.3787 201.796 86.432C201.796 86.4853 201.796 86.5387 201.796 86.592V92H200.484V86.784C200.484 85.696 200.084 85.152 199.284 85.152ZM218.739 92.08C218.248 92.08 217.854 91.968 217.555 91.744C217.267 91.52 217.064 91.2427 216.947 90.912C216.424 91.3707 215.95 91.696 215.523 91.888C215.096 92.0693 214.67 92.16 214.243 92.16C213.55 92.16 213.038 91.936 212.707 91.488C212.376 91.04 212.211 90.4907 212.211 89.84C212.211 89.4027 212.291 89.0133 212.451 88.672C212.611 88.3307 212.883 88.064 213.267 87.872C213.651 87.6693 214.168 87.568 214.819 87.568C215.107 87.568 215.422 87.5893 215.763 87.632C216.104 87.664 216.451 87.7067 216.803 87.76V86.688C216.803 86.0907 216.67 85.6853 216.403 85.472C216.147 85.248 215.768 85.136 215.267 85.136C214.584 85.136 213.822 85.3227 212.979 85.696L212.563 84.608C213.054 84.384 213.523 84.2133 213.971 84.096C214.419 83.9787 214.872 83.92 215.331 83.92C216.078 83.92 216.648 84.0427 217.043 84.288C217.438 84.5333 217.71 84.8587 217.859 85.264C218.008 85.6693 218.083 86.112 218.083 86.592V90.016C218.083 90.2613 218.131 90.4693 218.227 90.64C218.323 90.8 218.515 90.88 218.803 90.88H218.979V92.08H218.739ZM213.507 89.824C213.507 90.1867 213.592 90.48 213.763 90.704C213.934 90.928 214.179 91.04 214.499 91.04C214.776 91.04 215.096 90.96 215.459 90.8C215.822 90.6293 216.27 90.2933 216.803 89.792V88.784C216.078 88.6667 215.438 88.608 214.883 88.608C214.392 88.608 214.04 88.7093 213.827 88.912C213.614 89.1147 213.507 89.4187 213.507 89.824ZM224.646 85.152C224.347 85.152 223.995 85.2267 223.59 85.376C223.195 85.5253 222.715 85.8293 222.15 86.288V92H220.838V84.08H222.086V85.184C222.651 84.704 223.163 84.3733 223.622 84.192C224.091 84.0107 224.539 83.92 224.966 83.92C225.702 83.92 226.262 84.1547 226.646 84.624C227.04 85.0827 227.238 85.7387 227.238 86.592V92H225.926V86.784C225.926 85.696 225.499 85.152 224.646 85.152ZM232.448 92.8C232.107 93.76 231.685 94.4587 231.184 94.896C230.693 95.344 230.005 95.568 229.12 95.568V94.272C229.483 94.2613 229.792 94.2133 230.048 94.128C230.315 94.0427 230.549 93.8667 230.752 93.6C230.965 93.344 231.168 92.96 231.36 92.448L231.52 92.048L228.672 84.08H230.016L231.344 87.936L232.16 90.4L232.944 87.936L234.24 84.08H235.536L232.448 92.8ZM246.843 84.08L244.811 92H243.291L241.627 85.504L239.915 92H238.395L236.379 84.08H237.723L238.523 87.392L239.243 90.672L240.955 84.08H242.347L244.059 90.704L244.763 87.408L245.547 84.08H246.843ZM252.552 85.152C252.253 85.152 251.901 85.2267 251.496 85.376C251.101 85.5253 250.621 85.8293 250.056 86.288V92H248.744V80.16H250.056V85.136C250.611 84.6667 251.112 84.3467 251.56 84.176C252.008 84.0053 252.445 83.92 252.872 83.92C253.608 83.92 254.168 84.1547 254.552 84.624C254.947 85.0827 255.144 85.7387 255.144 86.592V92H253.832V86.784C253.832 85.696 253.405 85.152 252.552 85.152ZM263.629 91.536C263.149 91.7707 262.669 91.9307 262.189 92.016C261.709 92.112 261.266 92.16 260.861 92.16C259.719 92.16 258.866 91.8347 258.301 91.184C257.746 90.5333 257.469 89.6427 257.469 88.512V87.552C257.469 86.4533 257.746 85.5733 258.301 84.912C258.866 84.2507 259.661 83.92 260.685 83.92C261.229 83.92 261.725 84.032 262.173 84.256C262.631 84.4693 262.994 84.8 263.261 85.248C263.538 85.6853 263.677 86.2507 263.677 86.944C263.677 87.392 263.613 87.904 263.485 88.48H258.765V88.512C258.765 89.3227 258.93 89.936 259.261 90.352C259.602 90.768 260.146 90.976 260.893 90.976C261.234 90.976 261.607 90.9333 262.013 90.848C262.429 90.7627 262.834 90.6293 263.229 90.448L263.629 91.536ZM260.685 85.072C260.066 85.072 259.597 85.2747 259.277 85.68C258.967 86.0747 258.797 86.6347 258.765 87.36H262.349C262.381 87.168 262.397 86.9867 262.397 86.816C262.397 86.2187 262.226 85.7813 261.885 85.504C261.554 85.216 261.154 85.072 260.685 85.072ZM270.107 85.232C269.627 85.232 269.158 85.3173 268.699 85.488C268.251 85.6587 267.771 85.984 267.259 86.464V92H265.947V84.08H267.195V85.36C267.739 84.8267 268.235 84.4533 268.683 84.24C269.142 84.0267 269.616 83.92 270.107 83.92V85.232ZM277.566 91.536C277.086 91.7707 276.606 91.9307 276.126 92.016C275.646 92.112 275.203 92.16 274.798 92.16C273.657 92.16 272.803 91.8347 272.238 91.184C271.683 90.5333 271.406 89.6427 271.406 88.512V87.552C271.406 86.4533 271.683 85.5733 272.238 84.912C272.803 84.2507 273.598 83.92 274.622 83.92C275.166 83.92 275.662 84.032 276.11 84.256C276.569 84.4693 276.931 84.8 277.198 85.248C277.475 85.6853 277.614 86.2507 277.614 86.944C277.614 87.392 277.55 87.904 277.422 88.48H272.702V88.512C272.702 89.3227 272.867 89.936 273.198 90.352C273.539 90.768 274.083 90.976 274.83 90.976C275.171 90.976 275.545 90.9333 275.95 90.848C276.366 90.7627 276.771 90.6293 277.166 90.448L277.566 91.536ZM274.622 85.072C274.003 85.072 273.534 85.2747 273.214 85.68C272.905 86.0747 272.734 86.6347 272.702 87.36H276.286C276.318 87.168 276.334 86.9867 276.334 86.816C276.334 86.2187 276.163 85.7813 275.822 85.504C275.491 85.216 275.091 85.072 274.622 85.072Z" fill="#F8F8F8"/>
<path d="M114.576 67.326H112.185C112.117 66.9339 111.991 66.5866 111.808 66.2841C111.625 65.9773 111.397 65.7173 111.124 65.5043C110.851 65.2912 110.54 65.1314 110.191 65.0249C109.845 64.9141 109.473 64.8587 109.072 64.8587C108.36 64.8587 107.73 65.0376 107.18 65.3956C106.63 65.7493 106.2 66.2692 105.889 66.9553C105.578 67.6371 105.422 68.4702 105.422 69.4545C105.422 70.456 105.578 71.2997 105.889 71.9858C106.204 72.6676 106.634 73.1832 107.18 73.5327C107.73 73.8778 108.358 74.0504 109.066 74.0504C109.458 74.0504 109.824 73.9993 110.165 73.897C110.51 73.7905 110.819 73.6349 111.092 73.4304C111.369 73.2259 111.601 72.9744 111.789 72.6761C111.98 72.3778 112.112 72.0369 112.185 71.6534L114.576 71.6662C114.486 72.2884 114.292 72.8722 113.994 73.4176C113.7 73.9631 113.314 74.4446 112.837 74.8622C112.36 75.2756 111.801 75.5994 111.162 75.8338C110.523 76.0639 109.813 76.179 109.034 76.179C107.883 76.179 106.856 75.9126 105.953 75.38C105.049 74.8473 104.338 74.0781 103.818 73.0724C103.298 72.0668 103.038 70.8608 103.038 69.4545C103.038 68.044 103.3 66.8381 103.824 65.8366C104.348 64.831 105.062 64.0618 105.965 63.5291C106.869 62.9964 107.892 62.7301 109.034 62.7301C109.762 62.7301 110.44 62.8324 111.066 63.0369C111.693 63.2415 112.251 63.5419 112.741 63.9382C113.231 64.3303 113.634 64.8118 113.949 65.3828C114.269 65.9496 114.478 66.5973 114.576 67.326ZM119.119 62.9091V76H116.747V62.9091H119.119ZM132.445 62.9091V76H130.335L124.167 67.0831H124.058V76H121.687V62.9091H123.809L129.971 71.8324H130.086V62.9091H132.445ZM135.028 76V62.9091H143.543V64.897H137.4V68.451H143.102V70.4389H137.4V74.0121H143.594V76H135.028ZM145.387 64.897V62.9091H155.831V64.897H151.785V76H149.433V64.897H145.387ZM160.216 62.9091V76H157.845V62.9091H160.216ZM164.766 62.9091L167.649 67.7031H167.751L170.647 62.9091H173.35L169.317 69.4545L173.414 76H170.666L167.751 71.2379H167.649L164.734 76H161.998L166.134 69.4545L162.049 62.9091H164.766Z" fill="#F8F8F8"/>
<defs>
<filter id="filter0_d_129_39" x="44.1958" y="83.5926" width="37.4974" height="30.418" filterUnits="userSpaceOnUse" color-interpolation-filters="sRGB">
<feFlood flood-opacity="0" result="BackgroundImageFix"/>
<feColorMatrix in="SourceAlpha" type="matrix" values="0 0 0 0 0 0 0 0 0 0 0 0 0 0 0 0 0 0 127 0" result="hardAlpha"/>
<feOffset dy="4"/>
<feGaussianBlur stdDeviation="2"/>
<feComposite in2="hardAlpha" operator="out"/>
<feColorMatrix type="matrix" values="0 0 0 0 0 0 0 0 0 0 0 0 0 0 0 0 0 0 0.25 0"/>
<feBlend mode="normal" in2="BackgroundImageFix" result="effect1_dropShadow_129_39"/>
<feBlend mode="normal" in="SourceGraphic" in2="effect1_dropShadow_129_39" result="shape"/>
</filter>
</defs>
</svg>
